# xmcd
#
# Track frame offsets:
#	150
#	9598
#	20008
#	39132
#	55389
#	67752
#	80821
#	92310
#	105380
#	116794
#	125837
#	144154
#	156796
#	166550
#	180177
#	191572
#	204663
#
# Disc length: 2904 seconds
#
# Revision: 1
# Processed by: cddbd v1.5.2PL0 Copyright (c) Steve Scherf et al.
# Submitted via: EZCDAudioConverter 2.1.7.1
#
DISCID=d00b5611
DTITLE=V/A - Eccentric Soul: Mighty Mike Lenaburg
DYEAR=1900
DGENRE=
TTITLE0=Lon Rogers and The Soul Blenders - Too Good To Be True
TTITLE1=Michael Liggins - Standing On The Corner
TTITLE2=Michael Liggins and The Super Souls - Loaded To The Gills
TTITLE3=Sheila Jack - I've Got To Have You
TTITLE4=Michael Liggins - Black And Beautiful
TTITLE5=Ronnie Whitehead - Out Of Breath
TTITLE6=The Soulsations - Broadway Shing-A-Ling (Part 1)
TTITLE7=We The People - Function Underground
TTITLE8=Soul Blenders - Blending Soul
TTITLE9=Lon Rogers and The Soul Blenders - My Girl Is A Soul Girl
TTITLE10=Michael Liggins and The Super Souls - Loaded Back
TTITLE11=We The People - People, Open Your Eyes And See
TTITLE12=Ronnie Whitehead - Cold Feet
TTITLE13=The Soulsations - Funky Nightclub
TTITLE14=Ronnie Whitehead - Begging You
TTITLE15=Small Paul - There's Gonna Be Some Crying
TTITLE16=The Newlyweds - The Quarrel
EXTD=
EXTT0=
EXTT1=
EXTT2=
EXTT3=
EXTT4=
EXTT5=
EXTT6=
EXTT7=
EXTT8=
EXTT9=
EXTT10=
EXTT11=
EXTT12=
EXTT13=
EXTT14=
EXTT15=
EXTT16=
PLAYORDER=
